<?xml version="1.0" encoding="utf-8"?>
<!-- Generated by IcoMoon.io -->
<!DOCTYPE svg PUBLIC "-//W3C//DTD SVG 1.1//EN" "http://www.w3.org/Graphics/SVG/1.1/DTD/svg11.dtd">
<svg version="1.1" xmlns="http://www.w3.org/2000/svg" xmlns:xlink="http://www.w3.org/1999/xlink" width="768" height="768" viewBox="0 0 768 768">
<g id="icomoon-ignore">
</g>
<path d="M96 160h576q13.25 0 22.625 9.375t9.375 22.625-9.375 22.625-22.625 9.375h-576q-13.25 0-22.625-9.375t-9.375-22.625 9.375-22.625 22.625-9.375zM96 544h576q13.25 0 22.625 9.375t9.375 22.625-9.375 22.625-22.625 9.375h-576q-13.25 0-22.625-9.375t-9.375-22.625 9.375-22.625 22.625-9.375zM96 352h576q13.25 0 22.625 9.375t9.375 22.625-9.375 22.625-22.625 9.375h-576q-13.25 0-22.625-9.375t-9.375-22.625 9.375-22.625 22.625-9.375z"></path>
</svg>
